<svg width="393" height="159" viewBox="0 0 393 159" fill="none" xmlns="http://www.w3.org/2000/svg">
	<path d="M28.0039 42.3774C43.032 42.3774 55.641 46.9901 64.7539 55.0386C73.8673 63.0876 79.4696 74.5603 80.5068 88.2515L80.5254 88.4878H56.127L56.0986 88.3013C54.9687 80.8026 51.7362 74.6518 46.8721 70.3765C42.0084 66.1016 35.5 63.6891 27.7979 63.689C18.5574 63.689 10.8702 67.1782 5.49023 73.4292C0.107517 79.6834 -2.98145 88.7212 -2.98145 99.8413C-2.9814 111.786 0.41631 121.186 6.05664 127.595C11.6952 134.003 19.59 137.44 28.624 137.44C36.0148 137.44 42.2632 135.08 46.9717 130.781C51.6814 126.481 54.8659 120.226 56.0996 112.413L56.1289 112.228H80.5312L80.5068 112.469C79.0555 126.672 73.4028 138.246 64.4443 146.27C55.486 154.293 43.2387 158.751 28.624 158.751C10.6926 158.751 -3.52442 152.324 -13.2568 141.735C-22.987 131.148 -28.2197 116.419 -28.2197 99.8413C-28.2197 81.8111 -22.1563 67.4404 -12.0859 57.5776C-2.01661 47.716 12.0421 42.3775 28.0039 42.3774ZM376.843 0.219238V155.652H356.796L356.772 155.458L354.59 136.806C348.207 150.325 334.65 158.751 317.106 158.751C287.407 158.751 266.049 134.652 266.049 100.047C266.049 66.0631 286.993 42.3776 316.279 42.3774C331.576 42.3774 344.284 48.5944 352.019 58.6802V0.219238H376.843ZM155.915 44.4438V68.6489H151.562C140.234 68.6489 131.251 71.6863 125.103 77.271C118.957 82.8531 115.617 91.0043 115.617 101.288V155.652H90.792V45.6841H110.836L110.862 45.8745L113.657 66.6411C117.166 59.4902 122.046 53.996 128.252 50.2622C134.647 46.4147 142.438 44.4438 151.562 44.4438H155.915ZM517.835 45.6841L517.9 45.7778L543.138 82.0952L568.171 45.7788L568.236 45.6841H596.055L595.81 46.0308L557.048 100.667L596.428 155.303L596.679 155.652H568.648L568.583 155.555L543.138 118.003L517.488 155.556L517.423 155.652H489.393L489.644 155.303L529.023 100.667L490.263 46.0308L490.017 45.6841H517.835ZM322.066 63.2759C313.04 63.2759 305.403 67.0688 300.02 73.5806C294.633 80.0954 291.493 89.3425 291.493 100.254C291.493 111.271 294.583 120.622 299.893 127.214C305.2 133.803 312.732 137.646 321.652 137.646C339.468 137.646 352.018 122.086 352.019 99.8413C352.019 89.0323 348.93 79.888 343.646 73.4507C338.366 67.0167 330.885 63.276 322.066 63.2759ZM442.119 63.4819C427.856 63.482 417.227 72.7918 413.468 88.2554H468.922C467.359 80.5582 464.196 74.3922 459.689 70.1392C455.135 65.8404 449.197 63.4819 442.119 63.4819ZM209.009 63.4819C194.746 63.4819 184.116 72.7917 180.356 88.2554H235.812C234.249 80.5581 231.084 74.3922 226.578 70.1392C222.024 65.8405 216.086 63.482 209.009 63.4819ZM261.512 105.847H179.284C180.143 115.311 183.525 123.233 188.965 128.8C194.448 134.412 202.036 137.646 211.281 137.646C223.807 137.646 233.221 131.494 236.906 120.643L236.956 120.494H261.157L261.093 120.764C258.292 132.588 252.274 142.088 243.705 148.631C235.137 155.174 224.032 158.751 211.075 158.751C194.282 158.751 180.118 152.738 170.154 142.514C160.191 132.291 154.438 117.871 154.438 101.081C154.438 82.949 160.397 68.271 170.206 58.1245C180.015 47.9782 193.661 42.3774 209.009 42.3774C224.562 42.3775 237.539 47.8228 246.704 57.7407C255.867 67.6567 261.201 82.024 261.512 99.8374L261.513 99.8413H261.512V105.847ZM494.623 105.847H412.396C413.254 115.311 416.635 123.233 422.075 128.8C427.559 134.412 435.147 137.646 444.393 137.646C456.918 137.646 466.331 131.494 470.017 120.643L470.067 120.494H494.268L494.204 120.764C491.404 132.588 485.385 142.088 476.816 148.631C468.248 155.174 457.143 158.751 444.186 158.751C427.392 158.751 413.23 152.738 403.266 142.514C393.302 132.291 387.549 117.871 387.549 101.081C387.549 82.9491 393.507 68.271 403.316 58.1245C413.125 47.9781 426.772 42.3775 442.119 42.3774C457.672 42.3774 470.649 47.8227 479.814 57.7407C488.978 67.6567 494.312 82.0238 494.623 99.8374V105.847Z" fill="url(#paint0_linear_428_1517)" fill-opacity="0.4" stroke="url(#paint1_linear_428_1517)" stroke-width="0.439147" />
	<defs>
		<linearGradient id="paint0_linear_428_1517" x1="282.558" y1="-9.94879" x2="282.558" y2="207.008" gradientUnits="userSpaceOnUse">
			<stop stop-color="#333333" />
			<stop offset="1" stop-color="#333333" stop-opacity="0" />
		</linearGradient>
		<linearGradient id="paint1_linear_428_1517" x1="284.125" y1="0.438965" x2="284.125" y2="158.532" gradientUnits="userSpaceOnUse">
			<stop />
			<stop offset="1" stop-color="#666666" stop-opacity="0" />
		</linearGradient>
	</defs>
</svg>
